<svg xmlns="http://www.w3.org/2000/svg" viewBox="0 0 256 256" role="img" aria-label="QR Bolt icon">
  <rect x="12" y="12" width="232" height="232" rx="32" fill="#fff" stroke="#000" stroke-width="12" />
  <g fill="#000">
    <rect x="26" y="26" width="72" height="72" rx="10" />
    <rect x="158" y="26" width="72" height="72" rx="10" />
    <rect x="26" y="158" width="72" height="72" rx="10" />
  </g>
  <g fill="#fff">
    <rect x="42" y="42" width="40" height="40" rx="6" />
    <rect x="174" y="42" width="40" height="40" rx="6" />
    <rect x="42" y="174" width="40" height="40" rx="6" />
  </g>
  <g fill="#000">
    <rect x="60" y="60" width="12" height="12" rx="2" />
    <rect x="192" y="60" width="12" height="12" rx="2" />
    <rect x="60" y="192" width="12" height="12" rx="2" />
    <rect x="110" y="112" width="18" height="18" rx="3" />
    <rect x="136" y="110" width="14" height="14" rx="3" />
    <rect x="110" y="140" width="16" height="16" rx="3" />
    <rect x="158" y="142" width="20" height="12" rx="3" />
    <rect x="182" y="120" width="22" height="22" rx="5" />
    <rect x="120" y="184" width="24" height="24" rx="6" />
    <rect x="152" y="188" width="12" height="12" rx="3" />
    <rect x="184" y="196" width="36" height="12" rx="3" />
  </g>
  <path fill="#000" stroke="#fff" stroke-width="8" d="M144 32 90 140h40l-12 84 62-126h-42l6-66z" />
</svg>
